<mxfile host="app.diagrams.net" agent="Mozilla/5.0 (Macintosh; Intel Mac OS X 10_15_7) AppleWebKit/537.36 (KHTML, like Gecko) Chrome/139.0.0.0 Safari/537.36 Edg/139.0.0.0" version="28.1.1">
  <diagram name="第 1 页" id="xxKaPrUC48ouSjhKEi3c">
    <mxGraphModel dx="1372" dy="2124" grid="1" gridSize="10" guides="1" tooltips="1" connect="1" arrows="1" fold="1" page="1" pageScale="1" pageWidth="827" pageHeight="1169" math="0" shadow="0">
      <root>
        <mxCell id="0" />
        <mxCell id="1" parent="0" />
        <mxCell id="hyPRIo7_5ALZye0Rjux--1" value="生态共建入口" style="whiteSpace=wrap;strokeWidth=2;verticalAlign=top;align=left;" vertex="1" parent="1">
          <mxGeometry x="598" width="692" height="220" as="geometry" />
        </mxCell>
        <mxCell id="hyPRIo7_5ALZye0Rjux--2" value="编排与网关" style="whiteSpace=wrap;strokeWidth=2;verticalAlign=top;align=left;" vertex="1" parent="1">
          <mxGeometry x="598" y="280" width="681" height="295" as="geometry" />
        </mxCell>
        <mxCell id="hyPRIo7_5ALZye0Rjux--3" value="用户 / 平台入口" style="whiteSpace=wrap;strokeWidth=2;verticalAlign=top;align=left;" vertex="1" parent="1">
          <mxGeometry x="230" y="277" width="318" height="303" as="geometry" />
        </mxCell>
        <mxCell id="hyPRIo7_5ALZye0Rjux--4" value="自然语言界面 / API" style="whiteSpace=wrap;strokeWidth=2;" vertex="1" parent="1">
          <mxGeometry x="294.5" y="340" width="197" height="54" as="geometry" />
        </mxCell>
        <mxCell id="hyPRIo7_5ALZye0Rjux--5" value="意图识别 / 参数解析" style="whiteSpace=wrap;strokeWidth=2;" vertex="1" parent="1">
          <mxGeometry x="290" y="470" width="206" height="54" as="geometry" />
        </mxCell>
        <mxCell id="hyPRIo7_5ALZye0Rjux--6" value="Tool Registry / RBAC" style="whiteSpace=wrap;strokeWidth=2;" vertex="1" parent="1">
          <mxGeometry x="1021" y="315" width="206" height="54" as="geometry" />
        </mxCell>
        <mxCell id="hyPRIo7_5ALZye0Rjux--7" value="MCP Gateway" style="whiteSpace=wrap;strokeWidth=2;" vertex="1" parent="1">
          <mxGeometry x="1045" y="425" width="157" height="54" as="geometry" />
        </mxCell>
        <mxCell id="hyPRIo7_5ALZye0Rjux--8" value="流程编排引擎" style="whiteSpace=wrap;strokeWidth=2;" vertex="1" parent="1">
          <mxGeometry x="675" y="445" width="156" height="55" as="geometry" />
        </mxCell>
        <mxCell id="hyPRIo7_5ALZye0Rjux--9" value="RAG-MCP" style="whiteSpace=wrap;strokeWidth=2;" vertex="1" parent="1">
          <mxGeometry x="1514" y="575" width="125" height="54" as="geometry" />
        </mxCell>
        <mxCell id="hyPRIo7_5ALZye0Rjux--10" value="扩展 MCP 集合" style="whiteSpace=wrap;strokeWidth=2;" vertex="1" parent="1">
          <mxGeometry x="1495" y="321" width="163" height="54" as="geometry" />
        </mxCell>
        <mxCell id="hyPRIo7_5ALZye0Rjux--11" value="核心 MCP 集合" style="whiteSpace=wrap;strokeWidth=2;" vertex="1" parent="1">
          <mxGeometry x="1495" y="435" width="163" height="54" as="geometry" />
        </mxCell>
        <mxCell id="hyPRIo7_5ALZye0Rjux--12" value="开源 MCP 提交" style="whiteSpace=wrap;strokeWidth=2;" vertex="1" parent="1">
          <mxGeometry x="644" y="41" width="163" height="54" as="geometry" />
        </mxCell>
        <mxCell id="hyPRIo7_5ALZye0Rjux--13" value="用户 MCP 提交" style="whiteSpace=wrap;strokeWidth=2;" vertex="1" parent="1">
          <mxGeometry x="644" y="145" width="163" height="54" as="geometry" />
        </mxCell>
        <mxCell id="hyPRIo7_5ALZye0Rjux--14" value="安全审核 / 协议校验 / 幂等检查" style="whiteSpace=wrap;strokeWidth=2;" vertex="1" parent="1">
          <mxGeometry x="929" y="50" width="260" height="78" as="geometry" />
        </mxCell>
        <mxCell id="hyPRIo7_5ALZye0Rjux--15" value="退回与整改建议" style="whiteSpace=wrap;strokeWidth=2;" vertex="1" parent="1">
          <mxGeometry x="1344" y="30" width="172" height="54" as="geometry" />
        </mxCell>
        <mxCell id="hyPRIo7_5ALZye0Rjux--16" value="知识域：意图 / 流程 / SOP / 工具规范" style="whiteSpace=wrap;strokeWidth=2;" vertex="1" parent="1">
          <mxGeometry x="994" y="640" width="260" height="54" as="geometry" />
        </mxCell>
        <mxCell id="hyPRIo7_5ALZye0Rjux--17" value="结构化诊断结果 / 执行日志" style="whiteSpace=wrap;strokeWidth=2;" vertex="1" parent="1">
          <mxGeometry x="660" y="640" width="180" height="54" as="geometry" />
        </mxCell>
        <mxCell id="hyPRIo7_5ALZye0Rjux--18" value="" style="curved=1;startArrow=none;endArrow=block;exitX=0.5;exitY=1;rounded=0;exitDx=0;exitDy=0;entryX=0.5;entryY=0;entryDx=0;entryDy=0;" edge="1" parent="1" source="hyPRIo7_5ALZye0Rjux--4" target="hyPRIo7_5ALZye0Rjux--5">
          <mxGeometry relative="1" as="geometry">
            <Array as="points" />
            <mxPoint x="256" y="472" as="targetPoint" />
          </mxGeometry>
        </mxCell>
        <mxCell id="hyPRIo7_5ALZye0Rjux--19" value="" style="curved=1;startArrow=none;endArrow=block;exitX=0.32;exitY=1;entryX=0.58;entryY=1;rounded=0;" edge="1" parent="1" source="hyPRIo7_5ALZye0Rjux--9" target="hyPRIo7_5ALZye0Rjux--5">
          <mxGeometry relative="1" as="geometry">
            <Array as="points">
              <mxPoint x="1387" y="780" />
              <mxPoint x="960" y="780" />
              <mxPoint x="560" y="770" />
            </Array>
          </mxGeometry>
        </mxCell>
        <mxCell id="hyPRIo7_5ALZye0Rjux--20" value="" style="curved=1;startArrow=none;endArrow=block;exitX=0;exitY=0.21;entryX=0.82;entryY=1;rounded=0;" edge="1" parent="1" source="hyPRIo7_5ALZye0Rjux--9" target="hyPRIo7_5ALZye0Rjux--8">
          <mxGeometry relative="1" as="geometry">
            <Array as="points">
              <mxPoint x="1387" y="555" />
              <mxPoint x="908" y="555" />
            </Array>
          </mxGeometry>
        </mxCell>
        <mxCell id="hyPRIo7_5ALZye0Rjux--21" value="" style="curved=1;startArrow=none;endArrow=block;entryX=0;entryY=0.5;rounded=0;exitX=1;exitY=0.5;exitDx=0;exitDy=0;" edge="1" parent="1" source="hyPRIo7_5ALZye0Rjux--5" target="hyPRIo7_5ALZye0Rjux--8">
          <mxGeometry relative="1" as="geometry">
            <Array as="points">
              <mxPoint x="548" y="472" />
            </Array>
            <mxPoint x="490" y="450" as="sourcePoint" />
          </mxGeometry>
        </mxCell>
        <mxCell id="hyPRIo7_5ALZye0Rjux--22" value="" style="curved=1;startArrow=none;endArrow=block;exitX=0.81;exitY=0;entryX=0;entryY=0.97;rounded=0;" edge="1" parent="1" source="hyPRIo7_5ALZye0Rjux--8" target="hyPRIo7_5ALZye0Rjux--6">
          <mxGeometry relative="1" as="geometry">
            <Array as="points">
              <mxPoint x="908" y="384" />
              <mxPoint x="951" y="384" />
            </Array>
          </mxGeometry>
        </mxCell>
        <mxCell id="hyPRIo7_5ALZye0Rjux--23" value="" style="curved=1;startArrow=none;endArrow=block;exitX=1;exitY=0.31;entryX=0;entryY=0.5;rounded=0;" edge="1" parent="1" source="hyPRIo7_5ALZye0Rjux--8" target="hyPRIo7_5ALZye0Rjux--7">
          <mxGeometry relative="1" as="geometry">
            <Array as="points">
              <mxPoint x="908" y="452" />
            </Array>
          </mxGeometry>
        </mxCell>
        <mxCell id="hyPRIo7_5ALZye0Rjux--24" value="" style="curved=1;startArrow=none;endArrow=block;exitX=1;exitY=0.01;entryX=0;entryY=0.91;rounded=0;" edge="1" parent="1" source="hyPRIo7_5ALZye0Rjux--7" target="hyPRIo7_5ALZye0Rjux--10">
          <mxGeometry relative="1" as="geometry">
            <Array as="points">
              <mxPoint x="1279" y="400" />
              <mxPoint x="1387" y="400" />
            </Array>
          </mxGeometry>
        </mxCell>
        <mxCell id="hyPRIo7_5ALZye0Rjux--25" value="" style="curved=1;startArrow=none;endArrow=block;exitX=1;exitY=0.59;entryX=0;entryY=0.5;rounded=0;" edge="1" parent="1" source="hyPRIo7_5ALZye0Rjux--7" target="hyPRIo7_5ALZye0Rjux--11">
          <mxGeometry relative="1" as="geometry">
            <Array as="points">
              <mxPoint x="1279" y="462" />
            </Array>
          </mxGeometry>
        </mxCell>
        <mxCell id="hyPRIo7_5ALZye0Rjux--26" value="" style="curved=1;startArrow=none;endArrow=block;exitX=0.87;exitY=1;entryX=0;entryY=0.02;rounded=0;" edge="1" parent="1" source="hyPRIo7_5ALZye0Rjux--7" target="hyPRIo7_5ALZye0Rjux--9">
          <mxGeometry relative="1" as="geometry">
            <Array as="points">
              <mxPoint x="1279" y="524" />
              <mxPoint x="1387" y="524" />
            </Array>
          </mxGeometry>
        </mxCell>
        <mxCell id="hyPRIo7_5ALZye0Rjux--27" value="" style="curved=1;startArrow=none;endArrow=block;exitX=1;exitY=0.5;entryX=0;entryY=0.27;rounded=0;" edge="1" parent="1" source="hyPRIo7_5ALZye0Rjux--12" target="hyPRIo7_5ALZye0Rjux--14">
          <mxGeometry relative="1" as="geometry">
            <Array as="points">
              <mxPoint x="904" y="68" />
            </Array>
          </mxGeometry>
        </mxCell>
        <mxCell id="hyPRIo7_5ALZye0Rjux--28" value="" style="curved=1;startArrow=none;endArrow=block;exitX=1;exitY=0.5;entryX=0.22;entryY=1;rounded=0;" edge="1" parent="1" source="hyPRIo7_5ALZye0Rjux--13" target="hyPRIo7_5ALZye0Rjux--14">
          <mxGeometry relative="1" as="geometry">
            <Array as="points">
              <mxPoint x="904" y="172" />
            </Array>
          </mxGeometry>
        </mxCell>
        <mxCell id="hyPRIo7_5ALZye0Rjux--29" value="拒绝" style="curved=1;startArrow=none;endArrow=block;exitX=1;exitY=0.16;entryX=0;entryY=0.5;rounded=0;" edge="1" parent="1" source="hyPRIo7_5ALZye0Rjux--14" target="hyPRIo7_5ALZye0Rjux--15">
          <mxGeometry relative="1" as="geometry">
            <Array as="points">
              <mxPoint x="1214" y="57" />
            </Array>
          </mxGeometry>
        </mxCell>
        <mxCell id="hyPRIo7_5ALZye0Rjux--30" value="通过" style="curved=1;startArrow=none;endArrow=block;exitX=0.72;exitY=1;entryX=0.5;entryY=0;rounded=0;entryDx=0;entryDy=0;" edge="1" parent="1" source="hyPRIo7_5ALZye0Rjux--14" target="hyPRIo7_5ALZye0Rjux--6">
          <mxGeometry x="-0.3381" y="-3" relative="1" as="geometry">
            <Array as="points" />
            <mxPoint as="offset" />
          </mxGeometry>
        </mxCell>
        <mxCell id="hyPRIo7_5ALZye0Rjux--31" value="注册发布 / 作用域签发" style="curved=1;dashed=1;dashPattern=2 3;startArrow=none;endArrow=block;exitX=1;exitY=0.5;entryX=0;entryY=0.45;rounded=0;" edge="1" parent="1" source="hyPRIo7_5ALZye0Rjux--6" target="hyPRIo7_5ALZye0Rjux--10">
          <mxGeometry relative="1" as="geometry">
            <Array as="points">
              <mxPoint x="1387" y="342" />
            </Array>
          </mxGeometry>
        </mxCell>
        <mxCell id="hyPRIo7_5ALZye0Rjux--32" value="" style="curved=1;startArrow=none;endArrow=block;exitX=1;exitY=0.5;entryX=0;entryY=0.79;rounded=0;" edge="1" parent="1" source="hyPRIo7_5ALZye0Rjux--16" target="hyPRIo7_5ALZye0Rjux--9">
          <mxGeometry relative="1" as="geometry">
            <Array as="points">
              <mxPoint x="1387" y="649" />
            </Array>
          </mxGeometry>
        </mxCell>
        <mxCell id="hyPRIo7_5ALZye0Rjux--35" value="" style="endArrow=classic;html=1;rounded=0;entryX=0.5;entryY=0;entryDx=0;entryDy=0;" edge="1" parent="1" target="hyPRIo7_5ALZye0Rjux--17">
          <mxGeometry width="50" height="50" relative="1" as="geometry">
            <mxPoint x="750" y="500" as="sourcePoint" />
            <mxPoint x="800" y="450" as="targetPoint" />
          </mxGeometry>
        </mxCell>
      </root>
    </mxGraphModel>
  </diagram>
</mxfile>
